# xmcd
#
# Track frame offsets: 
#        183
#        18118
#        34100
#        51143
#        64933
#        79890
#        99948
#        125270
#        159438
#        181083
#
# Disc length: 2822 seconds
#
# Revision: 5
# Processed by: cddbd v1.5.2PL0 Copyright (c) Steve Scherf et al.
# Submitted via: ExactAudioCopyFreeDBPlugin 1.0
#
DISCID=700b040a
DTITLE=Peter Green Splinter Group - Soho Session (2)
DYEAR=1998
DGENRE=Blues Rock
TTITLE0=Travelling Riverside Blues
TTITLE1=Steady Rollin' Man
TTITLE2=Terraplane Blues
TTITLE3=Honeymoon Blues
TTITLE4=Last Fair Deal Gone Down
TTITLE5=If I Had Possession Over Judgement Day
TTITLE6=Green Manalishi
TTITLE7=Goin' Down
TTITLE8=Help Me
TTITLE9=Look On Yonder Wall
EXTD=YEAR: 1998
EXTT0=
EXTT1=
EXTT2=
EXTT3=
EXTT4=
EXTT5=
EXTT6=
EXTT7=
EXTT8=
EXTT9=
PLAYORDER=
